<svg width="17" height="16" viewBox="0 0 17 16" fill="none" xmlns="http://www.w3.org/2000/svg">
<g clip-path="url(#clip0_596_9323)">
<path d="M15.5 12C15.5 12.2652 15.3946 12.5196 15.2071 12.7071C15.0196 12.8946 14.7652 13 14.5 13H2.5C2.23478 13 1.98043 12.8946 1.79289 12.7071C1.60536 12.5196 1.5 12.2652 1.5 12V6C1.5 5.73478 1.60536 5.48043 1.79289 5.29289C1.98043 5.10536 2.23478 5 2.5 5H3.672C4.46724 4.99956 5.22977 4.6834 5.792 4.121L6.622 3.293C6.809 3.10594 7.0625 3.00059 7.327 3H9.671C9.93619 3.00006 10.1905 3.10545 10.378 3.293L11.206 4.121C11.4846 4.39971 11.8154 4.6208 12.1795 4.77162C12.5436 4.92244 12.9339 5.00005 13.328 5H14.5C14.7652 5 15.0196 5.10536 15.2071 5.29289C15.3946 5.48043 15.5 5.73478 15.5 6V12ZM2.5 4C1.96957 4 1.46086 4.21071 1.08579 4.58579C0.710714 4.96086 0.5 5.46957 0.5 6L0.5 12C0.5 12.5304 0.710714 13.0391 1.08579 13.4142C1.46086 13.7893 1.96957 14 2.5 14H14.5C15.0304 14 15.5391 13.7893 15.9142 13.4142C16.2893 13.0391 16.5 12.5304 16.5 12V6C16.5 5.46957 16.2893 4.96086 15.9142 4.58579C15.5391 4.21071 15.0304 4 14.5 4H13.328C12.7976 3.99989 12.289 3.7891 11.914 3.414L11.086 2.586C10.711 2.2109 10.2024 2.00011 9.672 2H7.328C6.79761 2.00011 6.28899 2.2109 5.914 2.586L5.086 3.414C4.71101 3.7891 4.20239 3.99989 3.672 4H2.5Z" fill="#2B34B9"/>
<path d="M8.5 11C7.83696 11 7.20107 10.7366 6.73223 10.2678C6.26339 9.79893 6 9.16304 6 8.5C6 7.83696 6.26339 7.20107 6.73223 6.73223C7.20107 6.26339 7.83696 6 8.5 6C9.16304 6 9.79893 6.26339 10.2678 6.73223C10.7366 7.20107 11 7.83696 11 8.5C11 9.16304 10.7366 9.79893 10.2678 10.2678C9.79893 10.7366 9.16304 11 8.5 11ZM8.5 12C9.42826 12 10.3185 11.6313 10.9749 10.9749C11.6313 10.3185 12 9.42826 12 8.5C12 7.57174 11.6313 6.6815 10.9749 6.02513C10.3185 5.36875 9.42826 5 8.5 5C7.57174 5 6.6815 5.36875 6.02513 6.02513C5.36875 6.6815 5 7.57174 5 8.5C5 9.42826 5.36875 10.3185 6.02513 10.9749C6.6815 11.6313 7.57174 12 8.5 12ZM3.5 6.5C3.5 6.63261 3.44732 6.75979 3.35355 6.85355C3.25979 6.94732 3.13261 7 3 7C2.86739 7 2.74021 6.94732 2.64645 6.85355C2.55268 6.75979 2.5 6.63261 2.5 6.5C2.5 6.36739 2.55268 6.24021 2.64645 6.14645C2.74021 6.05268 2.86739 6 3 6C3.13261 6 3.25979 6.05268 3.35355 6.14645C3.44732 6.24021 3.5 6.36739 3.5 6.5Z" fill="#2B34B9"/>
</g>
<defs>
<clipPath id="clip0_596_9323">
<rect width="16" height="16" fill="white" transform="translate(0.5)"/>
</clipPath>
</defs>
</svg>
