<svg width="30" height="41" viewBox="0 0 30 41" fill="none" xmlns="http://www.w3.org/2000/svg">
<path fill-rule="evenodd" clip-rule="evenodd" d="M17.2824 0.383321C17.0617 0.339458 16.8414 0.295651 16.622 0.25H13.4271C13.3952 0.256552 13.3636 0.263105 13.3321 0.26962C13.1757 0.301981 13.0238 0.333434 12.8718 0.35947C8.56635 1.09448 5.12807 3.29169 2.66346 6.98238C0.145609 10.7591 -0.622679 14.9111 0.510736 19.3603C1.08885 21.6357 2.22988 23.6452 3.59149 25.5062C6.34249 29.2725 9.11688 33.0244 11.889 36.7732C12.6505 37.8031 13.4119 38.8327 14.1726 39.8623C14.5149 40.3315 15.1462 40.3862 15.5722 39.964C15.9145 39.6356 16.2264 39.2759 16.5155 38.8927C19.0333 35.5617 21.5436 32.2229 24.0538 28.8841C25.56 26.8902 27.0585 24.8806 28.2071 22.6365C29.7741 19.5792 30.3599 16.3733 29.7817 12.9328C28.8157 7.13876 24.1223 1.97024 18.5465 0.648782C18.127 0.551238 17.7041 0.467177 17.2824 0.383321ZM15.0662 7.76444C11.0065 7.74098 7.51565 11.1893 7.50007 15.2396C7.48448 19.2431 10.9286 22.7383 14.9416 22.7618C18.9935 22.7852 22.4844 19.3369 22.5 15.2866C22.5155 11.2753 19.0714 7.7879 15.0662 7.76444Z" fill="#2B34B9"/>
</svg>
