<svg width="16" height="17" viewBox="0 0 16 17" fill="none" xmlns="http://www.w3.org/2000/svg">
<path fill-rule="evenodd" clip-rule="evenodd" d="M8.91295 0.553328C8.8247 0.535783 8.73656 0.518261 8.64878 0.5H7.37084C7.35809 0.502621 7.34542 0.505243 7.33283 0.507849C7.27029 0.520793 7.20951 0.533374 7.14872 0.543788C5.42654 0.837792 4.05123 1.71668 3.06539 3.19295C2.05824 4.70363 1.75093 6.36444 2.20429 8.1441C2.43554 9.05426 2.89195 9.85808 3.4366 10.6025C4.53701 12.109 5.64678 13.6098 6.75563 15.1093C7.06024 15.5213 7.36477 15.9331 7.66903 16.3449C7.80595 16.5326 8.0585 16.5545 8.22889 16.3856C8.36581 16.2542 8.49056 16.1104 8.60619 15.9571C9.61333 14.6247 10.6174 13.2892 11.6215 11.9536C12.224 11.1561 12.8234 10.3523 13.2829 9.45461C13.9097 8.23168 14.1439 6.94932 13.9127 5.57313C13.5263 3.25551 11.6489 1.18809 9.41859 0.659513C9.25078 0.620495 9.08166 0.586871 8.91295 0.553328ZM8.0265 3.50578C6.40261 3.49639 5.00626 4.87571 5.00003 6.49586C4.99379 8.09724 6.37145 9.49532 7.97663 9.50471C9.5974 9.51409 10.9938 8.13477 11 6.51462C11.0062 4.91011 9.62857 3.51516 8.0265 3.50578Z" fill="#C5D1DE"/>
</svg>
