<svg width="6" height="10" viewBox="0 0 6 10" fill="none" xmlns="http://www.w3.org/2000/svg">
<path d="M3.10196 0.588013C3.58196 0.588013 3.99396 0.676013 4.33796 0.852013C4.68996 1.02001 4.95396 1.24801 5.12996 1.53601C5.30596 1.82401 5.39396 2.13201 5.39396 2.46001C5.39396 2.77201 5.33796 3.04001 5.22596 3.26401C5.12196 3.48001 4.99396 3.65601 4.84196 3.79201C4.68996 3.92801 4.48596 4.08801 4.22996 4.27201C3.89396 4.50401 3.64196 4.72001 3.47396 4.92001C3.30596 5.11201 3.22196 5.37201 3.22196 5.70001V6.24001H2.12996V5.64001C2.12996 5.29601 2.18596 5.00401 2.29796 4.76401C2.41796 4.52401 2.55796 4.33201 2.71796 4.18801C2.87796 4.04401 3.08996 3.88001 3.35396 3.69601C3.65796 3.49601 3.88196 3.31601 4.02596 3.15601C4.16996 2.99601 4.24196 2.78801 4.24196 2.53201C4.24196 2.20401 4.13396 1.95201 3.91796 1.77601C3.70196 1.59201 3.40596 1.50001 3.02996 1.50001C2.38996 1.50001 1.83396 1.78801 1.36196 2.36401L0.605957 1.77601C1.27796 0.984013 2.10996 0.588013 3.10196 0.588013ZM2.70596 7.47601C2.94596 7.47601 3.14596 7.55601 3.30596 7.71601C3.46596 7.87601 3.54596 8.07201 3.54596 8.30401C3.54596 8.53601 3.46596 8.73601 3.30596 8.90401C3.14596 9.06401 2.94596 9.14401 2.70596 9.14401C2.47396 9.14401 2.27796 9.06401 2.11796 8.90401C1.95796 8.73601 1.87796 8.53601 1.87796 8.30401C1.87796 8.07201 1.95796 7.87601 2.11796 7.71601C2.27796 7.55601 2.47396 7.47601 2.70596 7.47601Z" fill="white"/>
</svg>
