<svg width="24" height="24" viewBox="0 0 24 24" fill="none" xmlns="http://www.w3.org/2000/svg">
<path d="M11.5388 2.39536C11.7102 1.98624 12.2898 1.98624 12.4612 2.39536L14.4923 7.24481C14.7086 7.76116 15.1944 8.11411 15.7523 8.16023L20.992 8.59339C21.4341 8.62994 21.6132 9.18122 21.2771 9.47061L17.2926 12.9009C16.8684 13.2661 16.6828 13.8372 16.8114 14.3821L18.0186 19.4992C18.1204 19.9309 17.6515 20.2717 17.2724 20.0414L12.7787 17.312C12.3002 17.0214 11.6998 17.0214 11.2213 17.312L6.72764 20.0414C6.34854 20.2717 5.87958 19.9309 5.98143 19.4992L7.18865 14.3821C7.31718 13.8372 7.13163 13.2661 6.70738 12.9009L2.72293 9.47061C2.38679 9.18122 2.56591 8.62994 3.00796 8.59339L8.24772 8.16023C8.80562 8.11411 9.29142 7.76116 9.50768 7.24481L11.5388 2.39536Z" stroke="#EB9486"/>
<mask id="mask0_150_47632" style="mask-type:alpha" maskUnits="userSpaceOnUse" x="0" y="0" width="13" height="24">
<rect width="13" height="24" transform="matrix(-1 0 0 1 13 0)" fill="#C4C4C4"/>
</mask>
<g mask="url(#mask0_150_47632)">
<path d="M11.0776 2.2022C11.4203 1.38396 12.5797 1.38396 12.9224 2.2022L14.9535 7.05165C15.0977 7.39588 15.4215 7.63119 15.7935 7.66193L21.0332 8.09509C21.9173 8.16818 22.2756 9.27075 21.6033 9.84953L17.6188 13.2798C17.336 13.5233 17.2123 13.904 17.298 14.2673L18.5052 19.3844C18.7089 20.2478 17.771 20.9293 17.0128 20.4687L12.5191 17.7393C12.2002 17.5456 11.7998 17.5456 11.4809 17.7393L6.9872 20.4687C6.229 20.9293 5.2911 20.2478 5.49479 19.3844L6.702 14.2673C6.7877 13.904 6.66399 13.5233 6.38116 13.2798L2.39671 9.84953C1.72442 9.27075 2.08267 8.16818 2.96677 8.09509L8.20652 7.66193C8.57846 7.63119 8.90233 7.39588 9.0465 7.05165L11.0776 2.2022Z" fill="#EB9486"/>
</g>
</svg>
