<svg width="120" height="24" viewBox="0 0 120 24" fill="none" xmlns="http://www.w3.org/2000/svg">
<path d="M12.4612 2.39536L14.4923 7.24481C14.7086 7.76116 15.1944 8.11411 15.7523 8.16023L20.992 8.59339C21.4341 8.62994 21.6132 9.18122 21.2771 9.47061L17.2926 12.9009C16.8684 13.2661 16.6828 13.8372 16.8114 14.3821L18.0186 19.4992C18.1204 19.9309 17.6515 20.2717 17.2724 20.0414L12.7787 17.312C12.3002 17.0214 11.6998 17.0214 11.2213 17.312L6.72764 20.0414C6.34854 20.2717 5.87958 19.9309 5.98143 19.4992L7.18865 14.3821C7.31718 13.8372 7.13163 13.2661 6.70738 12.9009L2.72293 9.47061C2.38679 9.18122 2.56591 8.62994 3.00796 8.59339L8.24772 8.16023C8.80562 8.11411 9.29142 7.76116 9.50768 7.24481L11.5388 2.39536C11.7102 1.98624 12.2898 1.98624 12.4612 2.39536Z" stroke="#EB9486"/>
<path d="M36.4612 2.39536L38.4923 7.24481C38.7086 7.76116 39.1944 8.11411 39.7523 8.16023L44.992 8.59339C45.4341 8.62994 45.6132 9.18122 45.2771 9.47061L41.2926 12.9009C40.8684 13.2661 40.6828 13.8372 40.8114 14.3821L42.0186 19.4992C42.1204 19.9309 41.6515 20.2717 41.2724 20.0414L36.7787 17.312C36.3002 17.0214 35.6998 17.0214 35.2213 17.312L30.7276 20.0414C30.3485 20.2717 29.8796 19.9309 29.9814 19.4992L31.1886 14.3821C31.3172 13.8372 31.1316 13.2661 30.7074 12.9009L26.7229 9.47061C26.3868 9.18122 26.5659 8.62994 27.008 8.59339L32.2477 8.16023C32.8056 8.11411 33.2914 7.76116 33.5077 7.24481L35.5388 2.39536C35.7102 1.98624 36.2898 1.98624 36.4612 2.39536Z" stroke="#EB9486"/>
<path d="M60.4612 2.39536L62.4923 7.24481C62.7086 7.76116 63.1944 8.11411 63.7523 8.16023L68.992 8.59339C69.4341 8.62994 69.6132 9.18122 69.2771 9.47061L65.2926 12.9009C64.8684 13.2661 64.6828 13.8372 64.8114 14.3821L66.0186 19.4992C66.1204 19.9309 65.6515 20.2717 65.2724 20.0414L60.7787 17.312C60.3002 17.0214 59.6998 17.0214 59.2213 17.312L54.7276 20.0414C54.3485 20.2717 53.8796 19.9309 53.9814 19.4992L55.1886 14.3821C55.3172 13.8372 55.1316 13.2661 54.7074 12.9009L50.7229 9.47061C50.3868 9.18122 50.5659 8.62994 51.008 8.59339L56.2477 8.16023C56.8056 8.11411 57.2914 7.76116 57.5077 7.24481L59.5388 2.39536C59.7102 1.98624 60.2898 1.98624 60.4612 2.39536Z" stroke="#EB9486"/>
<path d="M84.4612 2.39536L86.4923 7.24481C86.7086 7.76116 87.1944 8.11411 87.7523 8.16023L92.992 8.59339C93.4341 8.62994 93.6132 9.18122 93.2771 9.47061L89.2926 12.9009C88.8684 13.2661 88.6828 13.8372 88.8114 14.3821L90.0186 19.4992C90.1204 19.9309 89.6515 20.2717 89.2724 20.0414L84.7787 17.312C84.3002 17.0214 83.6998 17.0214 83.2213 17.312L78.7276 20.0414C78.3485 20.2717 77.8796 19.9309 77.9814 19.4992L79.1886 14.3821C79.3172 13.8372 79.1316 13.2661 78.7074 12.9009L74.7229 9.47061C74.3868 9.18122 74.5659 8.62994 75.008 8.59339L80.2477 8.16023C80.8056 8.11411 81.2914 7.76116 81.5077 7.24481L83.5388 2.39536C83.7102 1.98624 84.2898 1.98624 84.4612 2.39536Z" stroke="#EB9486"/>
<path d="M108.461 2.39536L110.492 7.24481C110.709 7.76116 111.194 8.11411 111.752 8.16023L116.992 8.59339C117.434 8.62994 117.613 9.18122 117.277 9.47061L113.293 12.9009C112.868 13.2661 112.683 13.8372 112.811 14.3821L114.019 19.4992C114.12 19.9309 113.651 20.2717 113.272 20.0414L108.779 17.312C108.3 17.0214 107.7 17.0214 107.221 17.312L102.728 20.0414C102.349 20.2717 101.88 19.9309 101.981 19.4992L103.189 14.3821C103.317 13.8372 103.132 13.2661 102.707 12.9009L98.7229 9.47061C98.3868 9.18122 98.5659 8.62994 99.008 8.59339L104.248 8.16023C104.806 8.11411 105.291 7.76116 105.508 7.24481L107.539 2.39536C107.71 1.98624 108.29 1.98624 108.461 2.39536Z" stroke="#EB9486"/>
</svg>
