<svg width="24" height="24" viewBox="0 0 24 24" fill="none" xmlns="http://www.w3.org/2000/svg">
<path d="M11.0776 2.2022C11.4203 1.38396 12.5797 1.38396 12.9224 2.2022L14.9535 7.05165C15.0977 7.39588 15.4215 7.63119 15.7935 7.66193L21.0332 8.09509C21.9173 8.16818 22.2756 9.27075 21.6033 9.84953L17.6188 13.2798C17.336 13.5233 17.2123 13.904 17.298 14.2673L18.5052 19.3844C18.7089 20.2478 17.771 20.9293 17.0128 20.4687L12.5191 17.7393C12.2002 17.5456 11.7998 17.5456 11.4809 17.7393L6.9872 20.4687C6.229 20.9293 5.2911 20.2478 5.49479 19.3844L6.702 14.2673C6.7877 13.904 6.66399 13.5233 6.38116 13.2798L2.39671 9.84953C1.72442 9.27075 2.08267 8.16818 2.96677 8.09509L8.20652 7.66193C8.57846 7.63119 8.90233 7.39588 9.0465 7.05165L11.0776 2.2022Z" fill="#EB9486"/>
</svg>
