<svg width="24" height="24" viewBox="0 0 24 24" fill="none" xmlns="http://www.w3.org/2000/svg">
<path d="M11.5388 2.39536C11.7102 1.98624 12.2898 1.98624 12.4612 2.39536L14.4923 7.24481C14.7086 7.76116 15.1944 8.11411 15.7523 8.16023L20.992 8.59339C21.4341 8.62994 21.6132 9.18122 21.2771 9.47061L17.2926 12.9009C16.8684 13.2661 16.6828 13.8372 16.8114 14.3821L18.0186 19.4992C18.1204 19.9309 17.6515 20.2717 17.2724 20.0414L12.7787 17.312C12.3002 17.0214 11.6998 17.0214 11.2213 17.312L6.72764 20.0414C6.34854 20.2717 5.87958 19.9309 5.98143 19.4992L7.18865 14.3821C7.31718 13.8372 7.13163 13.2661 6.70738 12.9009L2.72293 9.47061C2.38679 9.18122 2.56591 8.62994 3.00796 8.59339L8.24772 8.16023C8.80562 8.11411 9.29142 7.76116 9.50768 7.24481L11.5388 2.39536Z" stroke="#EB9486"/>
</svg>
