<svg width="120" height="24" viewBox="0 0 120 24" fill="none" xmlns="http://www.w3.org/2000/svg">
<path d="M11.0776 2.2022C11.4203 1.38396 12.5797 1.38396 12.9224 2.2022L14.9535 7.05165C15.0977 7.39588 15.4215 7.63119 15.7935 7.66193L21.0332 8.09509C21.9173 8.16818 22.2756 9.27075 21.6033 9.84953L17.6188 13.2798C17.336 13.5233 17.2123 13.904 17.298 14.2673L18.5052 19.3844C18.7089 20.2478 17.771 20.9293 17.0128 20.4687L12.5191 17.7393C12.2002 17.5456 11.7998 17.5456 11.4809 17.7393L6.9872 20.4687C6.229 20.9293 5.2911 20.2478 5.49479 19.3844L6.702 14.2673C6.7877 13.904 6.66399 13.5233 6.38116 13.2798L2.39671 9.84953C1.72442 9.27075 2.08267 8.16818 2.96677 8.09509L8.20652 7.66193C8.57846 7.63119 8.90233 7.39588 9.0465 7.05165L11.0776 2.2022Z" fill="#EB9486"/>
<path d="M35.0776 2.2022C35.4203 1.38396 36.5797 1.38396 36.9224 2.2022L38.9535 7.05165C39.0977 7.39588 39.4215 7.63119 39.7935 7.66193L45.0332 8.09509C45.9173 8.16818 46.2756 9.27075 45.6033 9.84953L41.6188 13.2798C41.336 13.5233 41.2123 13.904 41.298 14.2673L42.5052 19.3844C42.7089 20.2478 41.771 20.9293 41.0128 20.4687L36.5191 17.7393C36.2002 17.5456 35.7998 17.5456 35.4809 17.7393L30.9872 20.4687C30.229 20.9293 29.2911 20.2478 29.4948 19.3844L30.702 14.2673C30.7877 13.904 30.664 13.5233 30.3812 13.2798L26.3967 9.84953C25.7244 9.27075 26.0827 8.16818 26.9668 8.09509L32.2065 7.66193C32.5785 7.63119 32.9023 7.39588 33.0465 7.05165L35.0776 2.2022Z" fill="#EB9486"/>
<path d="M59.0776 2.2022C59.4203 1.38396 60.5797 1.38396 60.9224 2.2022L62.9535 7.05165C63.0977 7.39588 63.4215 7.63119 63.7935 7.66193L69.0332 8.09509C69.9173 8.16818 70.2756 9.27075 69.6033 9.84953L65.6188 13.2798C65.336 13.5233 65.2123 13.904 65.298 14.2673L66.5052 19.3844C66.7089 20.2478 65.771 20.9293 65.0128 20.4687L60.5191 17.7393C60.2002 17.5456 59.7998 17.5456 59.4809 17.7393L54.9872 20.4687C54.229 20.9293 53.2911 20.2478 53.4948 19.3844L54.702 14.2673C54.7877 13.904 54.664 13.5233 54.3812 13.2798L50.3967 9.84953C49.7244 9.27075 50.0827 8.16818 50.9668 8.09509L56.2065 7.66193C56.5785 7.63119 56.9023 7.39588 57.0465 7.05165L59.0776 2.2022Z" fill="#EB9486"/>
<path d="M83.0776 2.2022C83.4203 1.38396 84.5797 1.38396 84.9224 2.2022L86.9535 7.05165C87.0977 7.39588 87.4215 7.63119 87.7935 7.66193L93.0332 8.09509C93.9173 8.16818 94.2756 9.27075 93.6033 9.84953L89.6188 13.2798C89.336 13.5233 89.2123 13.904 89.298 14.2673L90.5052 19.3844C90.7089 20.2478 89.771 20.9293 89.0128 20.4687L84.5191 17.7393C84.2002 17.5456 83.7998 17.5456 83.4809 17.7393L78.9872 20.4687C78.229 20.9293 77.2911 20.2478 77.4948 19.3844L78.702 14.2673C78.7877 13.904 78.664 13.5233 78.3812 13.2798L74.3967 9.84953C73.7244 9.27075 74.0827 8.16818 74.9668 8.09509L80.2065 7.66193C80.5785 7.63119 80.9023 7.39588 81.0465 7.05165L83.0776 2.2022Z" fill="#EB9486"/>
<path d="M107.078 2.2022C107.42 1.38396 108.58 1.38396 108.922 2.2022L110.953 7.05165C111.098 7.39588 111.422 7.63119 111.793 7.66193L117.033 8.09509C117.917 8.16818 118.276 9.27075 117.603 9.84953L113.619 13.2798C113.336 13.5233 113.212 13.904 113.298 14.2673L114.505 19.3844C114.709 20.2478 113.771 20.9293 113.013 20.4687L108.519 17.7393C108.2 17.5456 107.8 17.5456 107.481 17.7393L102.987 20.4687C102.229 20.9293 101.291 20.2478 101.495 19.3844L102.702 14.2673C102.788 13.904 102.664 13.5233 102.381 13.2798L98.3967 9.84953C97.7244 9.27075 98.0827 8.16818 98.9668 8.09509L104.207 7.66193C104.578 7.63119 104.902 7.39588 105.047 7.05165L107.078 2.2022Z" fill="#EB9486"/>
</svg>
