<svg width="17" height="11" viewBox="0 0 17 11" fill="none" xmlns="http://www.w3.org/2000/svg">
<path d="M7.52426 1.4025L1.98352 9L7.92824 9L13.873 9L8.33222 1.4025C8.13251 1.12866 7.72397 1.12866 7.52426 1.4025Z" fill="white" stroke="#E2E6EB"/>
<path d="M2.89502 9.64061C2.9265 9.61676 2.95769 9.59056 2.97824 9.55826C2.9992 9.52532 3.03141 9.50355 3.05271 9.47328C3.08676 9.42489 3.12613 9.36803 3.14119 9.30946C3.17857 9.16408 3.27747 9.02479 3.36634 8.90735C3.43958 8.81056 3.48717 8.68577 3.57309 8.59985" stroke="white" stroke-width="0.5" stroke-linecap="round"/>
<path d="M3.28906 8.46484C3.26312 8.50285 3.24342 8.54453 3.21875 8.5829C3.18835 8.63018 3.15874 8.67789 3.12717 8.72461C3.03739 8.85749 2.95423 8.99765 2.88194 9.14062C2.86927 9.16568 2.85044 9.18642 2.83898 9.21181C2.8274 9.23743 2.80999 9.26162 2.7947 9.28516C2.76232 9.33505 2.74028 9.39014 2.70095 9.43576C2.68408 9.45534 2.67189 9.47858 2.65451 9.49761C2.64343 9.50975 2.63244 9.52006 2.625 9.53494C2.61924 9.54645 2.60666 9.55221 2.60004 9.5625C2.59475 9.57074 2.59399 9.58203 2.58203 9.58203" stroke="white" stroke-width="0.5" stroke-linecap="round"/>
<path d="M4.67515 8.33926C4.39788 8.52883 4.15679 8.80256 3.95367 9.07032C3.90796 9.13057 3.86791 9.20241 3.81014 9.25212C3.72769 9.32307 3.63069 9.39439 3.55944 9.47603C3.47214 9.57606 3.37743 9.66084 3.28098 9.75161C3.21057 9.81788 3.14054 9.95358 3.16999 9.77362C3.20372 9.56748 3.32073 9.39955 3.3738 9.20141C3.40264 9.09375 3.42236 8.92219 3.49532 8.83301C3.64292 8.65262 4.31781 8.39563 4.12016 8.51916C3.91871 8.64506 4.17696 8.58807 4.26752 8.57274C4.39623 8.55096 4.52589 8.52429 4.65602 8.51246C4.8363 8.49607 5.02655 8.49428 5.20718 8.49428C5.51064 8.49428 5.80238 8.45938 6.10377 8.44165C6.51277 8.41759 6.9246 8.42538 7.33527 8.42538C8.46875 8.42538 9.60037 8.45983 10.7341 8.45983C11.1104 8.45983 11.4857 8.5115 11.8613 8.5115C11.9914 8.5115 12.1075 8.49428 12.2364 8.49428C12.4201 8.49428 12.4887 8.64205 12.4947 8.80048C12.4974 8.86924 12.5292 8.93945 12.5292 9.00238C12.5292 9.08818 12.5292 9.17398 12.5292 9.25978C12.5292 9.4711 12.3317 9.47603 12.1675 9.47603C11.8617 9.47603 11.5685 9.51429 11.2632 9.52675C10.9818 9.53824 10.7023 9.54493 10.4202 9.54493C10.1077 9.54493 9.79682 9.49326 9.48632 9.49326C9.20879 9.49326 8.93015 9.47043 8.65289 9.45977C8.3011 9.44624 7.94665 9.45881 7.59458 9.45881C6.5361 9.45881 5.4793 9.47603 4.42062 9.47603C4.29336 9.47603 4.16609 9.47603 4.03883 9.47603C3.94657 9.47603 3.68245 9.51077 3.76229 9.46455C3.96084 9.3496 4.25319 9.38991 4.4723 9.38991C4.80784 9.38991 5.14338 9.38991 5.47893 9.38991C5.78241 9.38991 6.08644 9.39543 6.38987 9.38991C6.73835 9.38358 5.69343 9.35855 5.34497 9.35164C4.96788 9.34416 4.57623 9.34628 4.2015 9.29518C4.19169 9.29385 4.04557 9.27377 4.12973 9.25212C4.24446 9.22262 4.3704 9.21424 4.48761 9.20045C5.32323 9.10214 7.84941 9.06266 7.00802 9.06266C6.41774 9.06266 5.83145 8.99436 5.24258 8.96123C4.8247 8.93773 4.40659 8.92762 3.98812 8.92487C3.98297 8.92484 3.67586 8.93059 3.68287 8.89904C3.69316 8.85273 3.96926 8.86073 3.99386 8.8598C4.2843 8.84884 4.57505 8.8401 4.86557 8.8311C5.16943 8.82169 5.47348 8.82011 5.77747 8.82153C5.83451 8.8218 5.95056 8.82028 5.82915 8.85693C5.62297 8.91918 5.39409 8.94757 5.18038 8.97272C4.82302 9.01476 5.90034 8.97311 6.25974 8.95549C6.65219 8.93625 7.8296 8.88731 7.4367 8.89042C7.29975 8.89151 7.1629 8.89984 7.0262 8.90765C6.96536 8.91112 6.87632 8.92691 6.99462 8.92487C7.29856 8.91963 7.59112 8.80988 7.89121 8.77177C8.0441 8.75236 7.82994 8.7498 7.80414 8.74881C7.5327 8.73841 7.26129 8.73173 6.98984 8.74594C6.80255 8.75574 6.26733 8.87496 6.42815 8.77847C6.47511 8.75029 6.5473 8.74536 6.60039 8.73924C6.60894 8.73825 6.71618 8.73541 6.64919 8.73541C6.48123 8.73541 6.31452 8.75105 6.14683 8.75263C6.10377 8.75304 5.98319 8.75166 6.11238 8.76986C6.34674 8.80287 6.59042 8.78763 6.82621 8.78708C7.49453 8.78552 8.15907 8.71819 8.82704 8.71819C9.0232 8.71819 9.21936 8.71819 9.41552 8.71819C9.56475 8.71819 9.31606 8.72623 9.30356 8.7268C8.67187 8.75578 8.04397 8.79269 7.41565 8.86937C7.15205 8.90154 6.89245 8.94801 6.63196 8.99855C6.48883 9.02632 6.79733 9.00724 6.79942 9.00716C7.43754 8.98382 8.07429 8.94419 8.71317 8.9421C8.77824 8.94188 8.84331 8.94125 8.90837 8.9421C8.96398 8.94282 8.79736 8.94884 8.74188 8.95262C8.4705 8.97112 8.20858 9.01712 7.94193 9.0684C7.79254 9.09713 7.64141 9.11556 7.4922 9.14495C7.35607 9.17177 7.50037 9.16057 7.54674 9.15548C8.21304 9.08235 8.87137 8.95852 9.53991 8.90191C9.79803 8.88005 10.0565 8.87428 10.315 8.8598C10.4319 8.85326 10.336 8.87507 10.2805 8.88181C10.1328 8.89978 9.98626 8.91133 9.8442 8.95932C9.84047 8.96058 9.68024 9.01556 9.72267 9.03778C9.79716 9.0768 9.90515 9.07498 9.98581 9.07797C10.2 9.0859 10.4144 9.07134 10.6269 9.04544C10.7475 9.03074 10.9147 9.02971 11.0279 8.9775C11.11 8.93959 10.8475 8.9582 10.7571 8.95932C10.4146 8.96355 10.0853 9.06689 9.74468 9.09328C9.51103 9.11138 9.27943 9.11861 9.04999 9.1727C9.00667 9.18292 8.83818 9.21768 8.97535 9.21768C9.30994 9.21768 9.64471 9.22164 9.97912 9.20906C10.0358 9.20693 10.2855 9.23443 10.3303 9.18323C10.3405 9.17152 10.1271 9.18443 10.1226 9.18514C9.96635 9.21029 9.81139 9.24215 9.65474 9.26552C9.59386 9.2746 9.41264 9.29671 9.47389 9.30284C9.59009 9.31446 9.71043 9.26921 9.82123 9.24255C10.0355 9.19101 10.2571 9.15982 10.4767 9.14304C10.7123 9.12504 10.9496 9.13156 11.1857 9.13156C11.3733 9.13156 11.5627 9.1658 11.7503 9.14495C11.8777 9.13079 12.0041 9.13156 12.133 9.13156C12.1644 9.13156 12.1793 9.1356 12.1933 9.10476C12.2411 8.99971 12.1369 8.94658 12.0517 8.91817C11.8236 8.84215 11.5943 8.88368 11.3628 8.90573C11.3427 8.90765 11.1979 8.89272 11.1838 8.91626C11.1778 8.92635 11.2065 8.92343 11.2183 8.92392C11.2684 8.92601 11.3311 8.92446 11.379 8.922C11.5963 8.91086 11.8098 8.86869 12.0259 8.84641C12.0716 8.84169 12.2075 8.82756 12.1617 8.82249C12.0881 8.8143 12.0121 8.83927 11.9398 8.84832C11.8098 8.86457 11.6784 8.86532 11.5484 8.88277C11.4666 8.89374 11.2238 8.90697 11.3044 8.92487C11.4251 8.9517 11.5791 8.92487 11.7024 8.92487" stroke="white" stroke-width="0.5" stroke-linecap="round"/>
<path d="M12.5273 8.50391C12.5458 8.53411 12.5682 8.57453 12.5957 8.59592C12.6129 8.60933 12.6235 8.64098 12.6337 8.66016C12.6392 8.67052 12.6463 8.68596 12.6532 8.69444C12.6618 8.70494 12.6642 8.71889 12.6738 8.72852C12.6956 8.75033 12.6991 8.79105 12.719 8.81424C12.7368 8.83507 12.7537 8.86136 12.7743 8.88194C12.7838 8.89141 12.7985 8.89644 12.8056 8.90842C12.8108 8.91733 12.8187 8.92604 12.8262 8.93186C12.8388 8.9417 12.8421 8.95896 12.8537 8.96897C12.8643 8.97805 12.881 9.0038 12.8859 9.01649C12.893 9.03511 12.9095 9.05382 12.9217 9.0701C12.9307 9.0822 12.9384 9.09797 12.9492 9.10938C12.973 9.1346 12.9832 9.17453 12.9998 9.20486C13.0088 9.22143 13.0176 9.24177 13.0293 9.25608C13.0411 9.27051 13.0459 9.29198 13.0586 9.30469C13.0795 9.3256 13.0993 9.36 13.1133 9.38455C13.1189 9.3944 13.1251 9.40466 13.1337 9.41319C13.1361 9.41562 13.14 9.42188 13.1367 9.42188C13.094 9.42188 13.0501 9.42498 13.0076 9.41992C12.9367 9.41148 12.866 9.40253 12.7945 9.4082C12.753 9.41149 12.7113 9.41281 12.6706 9.42188C12.6571 9.42486 12.6304 9.42779 12.6549 9.43707C12.7281 9.46472 12.8121 9.46875 12.8898 9.46875C12.9093 9.46875 12.9205 9.47545 12.9384 9.4796C12.9556 9.4836 12.9707 9.48438 12.9883 9.48438C13.0203 9.48438 13.0537 9.49219 13.0859 9.49219C13.0975 9.49219 13.1559 9.49158 13.1602 9.5" stroke="white" stroke-width="0.5" stroke-linecap="round"/>
<path d="M12.5977 8.51172C12.5977 8.52708 12.5969 8.53795 12.6025 8.55165C12.6078 8.56471 12.621 8.5703 12.6289 8.58116C12.6427 8.60004 12.6483 8.62506 12.6619 8.64258C12.6659 8.6477 12.6661 8.66121 12.668 8.66797C12.6707 8.67729 12.6768 8.68862 12.6815 8.69727C12.687 8.70761 12.6851 8.72026 12.6897 8.73069C12.695 8.74268 12.6996 8.75417 12.704 8.76649C12.7115 8.78752 12.7263 8.80633 12.7335 8.82726C12.7404 8.84691 12.7573 8.86729 12.7618 8.88715C12.7724 8.93482 12.8091 8.97084 12.8282 9.01367C12.8443 9.04994 12.8938 9.07043 12.9132 9.10547C12.9202 9.11795 12.934 9.12972 12.9454 9.1365C12.9636 9.14742 12.9743 9.16147 12.9892 9.17491C13.0142 9.19741 13.0386 9.22961 13.0608 9.25781C13.092 9.29749 13.1277 9.33612 13.1485 9.38281C13.1576 9.40339 13.1696 9.42259 13.1817 9.44141C13.1843 9.44543 13.1957 9.46763 13.1891 9.45074C13.1834 9.43632 13.1742 9.41814 13.1641 9.40625C13.1571 9.39796 13.1478 9.371 13.1437 9.36024C13.1362 9.34077 13.1203 9.32573 13.1133 9.30642C13.1024 9.27631 13.0767 9.23953 13.0547 9.21484C13.0444 9.20327 13.0374 9.18944 13.0272 9.17752C13.0114 9.15911 12.9928 9.14295 12.9757 9.12587C12.9424 9.09251 12.9176 9.05056 12.8889 9.01367C12.868 8.98682 12.8562 8.94859 12.8284 8.92773C12.8227 8.92348 12.8211 8.91291 12.8201 8.90625C12.8191 8.89923 12.8112 8.89188 12.8067 8.8865C12.7924 8.86936 12.7862 8.8442 12.7735 8.82509C12.7631 8.80947 12.7545 8.79548 12.7422 8.78147C12.7323 8.7701 12.7157 8.75242 12.711 8.73828" stroke="white" stroke-width="0.5" stroke-linecap="round"/>
<path d="M12.4492 8.47266C12.4605 8.49989 12.4729 8.52714 12.5017 8.53537C12.504 8.53602 12.5121 8.55226 12.5148 8.55556C12.5213 8.5638 12.5317 8.58338 12.5352 8.59375" stroke="white" stroke-width="0.5" stroke-linecap="round"/>
<path d="M12.5312 8.53906C12.5312 8.57735 12.5145 8.61107 12.5527 8.6365C12.5784 8.65366 12.6053 8.67328 12.6308 8.69314C12.6418 8.70169 12.6534 8.7069 12.6632 8.71571C12.6676 8.7197 12.683 8.74124 12.6836 8.74609C12.6864 8.77048 12.7132 8.79325 12.7217 8.81554C12.7274 8.83012 12.7346 8.84883 12.7443 8.86133C12.7513 8.87026 12.7511 8.88171 12.758 8.89084C12.7647 8.89982 12.7727 8.90961 12.7773 8.91992C12.7887 8.94547 12.8209 8.96424 12.8283 8.99002C12.8311 8.99966 12.8565 9.02804 12.8459 8.99609C12.8396 8.97735 12.8294 8.96834 12.8172 8.95616C12.799 8.93794 12.7822 8.92068 12.7639 8.90234C12.7589 8.89744 12.7568 8.89311 12.7521 8.88845C12.7454 8.88172 12.7716 8.90333 12.7751 8.90603C12.7922 8.91904 12.7983 8.94023 12.8144 8.95312C12.8235 8.96041 12.8389 8.98278 12.8437 8.99371C12.8475 9.00219 12.8609 9.00975 12.8671 9.01758C12.8741 9.02631 12.8879 9.0322 12.8915 9.0421C12.8963 9.05555 12.9116 9.07631 12.9218 9.08594C12.9456 9.10834 12.9739 9.13696 12.9921 9.16493C13.0139 9.1982 13.0423 9.22868 13.0662 9.25998C13.0799 9.27806 13.0933 9.29664 13.1072 9.31445C13.1177 9.32799 13.1241 9.34407 13.1345 9.35742C13.1373 9.36107 13.1402 9.37129 13.1406 9.37587C13.1415 9.38782 13.1514 9.39619 13.1553 9.40712C13.161 9.42301 13.169 9.43791 13.1766 9.45312C13.1833 9.46645 13.1862 9.49045 13.1992 9.49913C13.206 9.50365 13.1997 9.50944 13.204 9.51476C13.208 9.51988 13.2126 9.52079 13.2148 9.52734" stroke="white" stroke-width="0.5" stroke-linecap="round"/>
<path d="M0.996582 10.062C1.9047 10.062 2.82496 10.0867 3.73935 10.0867C4.04568 10.0867 4.37193 10.0525 4.67283 10.106C4.88995 10.1446 5.11601 10.1135 5.33312 10.1485C5.56968 10.1867 5.81178 10.1856 6.05107 10.1856C6.44929 10.1856 6.84973 10.1362 7.24812 10.1362C7.49755 10.1362 7.7425 10.1114 7.99078 10.1114C8.25488 10.1114 8.55696 10.1509 8.81581 10.0991C9.00915 10.0604 9.22525 10.0867 9.42257 10.0867C9.73876 10.0867 10.055 10.0867 10.3711 10.0867C10.8521 10.0867 11.333 10.0867 11.8139 10.0867C12.0999 10.0867 12.3859 10.0867 12.6719 10.0867C12.8406 10.0867 13.0486 10.1168 13.2086 10.0675C13.5013 9.97746 13.9027 10.0373 14.2162 10.0373C14.4299 10.0373 14.6523 10.062 14.871 10.062C15.0812 10.062 15.2975 10.046 15.5011 10.0867" stroke="white" stroke-linecap="round"/>
<path d="M1.04297 9.80859H1.10156" stroke="white" stroke-width="0.3" stroke-linecap="round"/>
<path d="M1.02344 9.67969C1.03935 9.67969 1.05527 9.67969 1.07118 9.67969C1.0911 9.67969 1.06282 9.68073 1.05664 9.67579C1.04999 9.67046 1.03972 9.67037 1.03429 9.66493C1.01967 9.65031 1.04888 9.65235 1.05664 9.65235C1.10091 9.65235 1.14518 9.65235 1.18945 9.65235C1.30108 9.65235 1.41613 9.64844 1.52908 9.64844C1.64675 9.64844 1.76159 9.65625 1.87891 9.65625C1.992 9.65625 2.10461 9.66016 2.2168 9.66016C2.22844 9.66016 2.24009 9.66016 2.25174 9.66016C2.26584 9.66016 2.2765 9.65305 2.28906 9.65235C2.31392 9.65097 2.33926 9.65235 2.36415 9.65235C2.37753 9.65235 2.39091 9.65235 2.4043 9.65235C2.42235 9.65235 2.39807 9.65235 2.39258 9.65235C2.36739 9.65235 2.33265 9.65893 2.30859 9.64931C2.28239 9.63883 2.23698 9.64216 2.21094 9.64063C2.17278 9.63839 2.13511 9.64454 2.09679 9.64454C2.04919 9.64454 2.00159 9.64454 1.95399 9.64454C1.8776 9.64454 1.80122 9.64454 1.72483 9.64454C1.43504 9.64454 1.14525 9.64454 0.855469 9.64454" stroke="white" stroke-width="0.3" stroke-linecap="round"/>
<path d="M13.0391 10.4531C13.104 10.4531 13.1743 10.4547 13.2383 10.4455C13.275 10.4403 13.3163 10.4453 13.3533 10.4453C13.3964 10.4453 13.4395 10.4453 13.4826 10.4453C13.6667 10.4453 13.8508 10.4492 14.0352 10.4492C14.1681 10.4492 14.2996 10.457 14.4327 10.457C14.4978 10.457 14.5629 10.457 14.628 10.457C14.6972 10.457 14.7666 10.4492 14.8359 10.4492C15.0704 10.4492 15.3046 10.4414 15.5391 10.4414" stroke="white" stroke-width="0.3" stroke-linecap="round"/>
<path d="M13.4922 9.67578C13.5191 9.67578 13.5466 9.67188 13.5723 9.67188C13.5824 9.67188 13.62 9.67188 13.5898 9.67188" stroke="white" stroke-width="0.3" stroke-linecap="round"/>
<path d="M13.5195 9.64845C13.5564 9.64845 13.5962 9.65236 13.6309 9.65236C13.64 9.65236 13.6491 9.65236 13.6582 9.65236C13.6801 9.65236 13.6356 9.65626 13.6298 9.65626C13.6093 9.65626 13.5888 9.65626 13.5684 9.65626C13.5352 9.65626 13.502 9.65626 13.4688 9.65626C13.4596 9.65626 13.4505 9.65626 13.4414 9.65626C13.4354 9.65626 13.453 9.65236 13.459 9.65236C13.4739 9.65236 13.4603 9.65449 13.457 9.6504C13.4555 9.64853 13.4497 9.64889 13.4497 9.6465C13.4497 9.64087 13.4563 9.64701 13.457 9.64845" stroke="white" stroke-width="0.3" stroke-linecap="round"/>
<path d="M13.7148 9.65234C13.7599 9.65234 13.8033 9.65625 13.8477 9.65625C13.8885 9.65625 13.9223 9.64088 13.9627 9.64822C13.9816 9.65167 14.0065 9.65234 14.0254 9.65234C14.052 9.65234 14.0779 9.66016 14.1046 9.66016C14.155 9.66016 14.2054 9.66016 14.2559 9.66016C14.3554 9.66016 14.4572 9.65234 14.5584 9.65234C14.6053 9.65234 14.6524 9.65368 14.6992 9.65234C14.7271 9.65155 14.7661 9.65388 14.793 9.64757C14.8153 9.64231 14.8506 9.63976 14.873 9.64475C14.9136 9.65376 14.956 9.65234 14.9983 9.65234C15.0438 9.65234 15.0877 9.66797 15.1328 9.66797C15.2105 9.66797 15.2884 9.67969 15.3672 9.67969C15.4481 9.67969 15.5288 9.69141 15.6094 9.69141C15.6732 9.69141 15.4818 9.69922 15.418 9.69922C15.3223 9.69922 15.2267 9.69922 15.1311 9.69922C15.06 9.69922 14.989 9.69922 14.918 9.69922C14.8508 9.69922 14.7813 9.7054 14.7157 9.69227C14.6811 9.68535 14.6439 9.69234 14.6094 9.68446C14.5805 9.67785 14.5483 9.68962 14.5195 9.68164C14.4724 9.66855 14.4074 9.68309 14.3672 9.65625" stroke="white" stroke-width="0.3" stroke-linecap="round"/>
</svg>
