<svg width="98" height="20" viewBox="0 0 98 20" fill="none" xmlns="http://www.w3.org/2000/svg">
<circle cx="8" cy="10" r="8" fill="#58C78A"/>
<path d="M4 10.0833L6.88235 13L12 7" stroke="white" stroke-width="2" stroke-linecap="round" stroke-linejoin="round"/>
<path d="M21.26 14.5V4.7H29.24V14.5H27.518V6.156H22.982V14.5H21.26ZM31.48 17.3V7.08H32.908V8.354C33.1413 7.92467 33.4727 7.57933 33.902 7.318C34.3313 7.05667 34.84 6.926 35.428 6.926C36.3987 6.926 37.1593 7.234 37.71 7.85C38.27 8.45667 38.55 9.36667 38.55 10.58V10.86C38.55 11.4853 38.4753 12.036 38.326 12.512C38.1767 12.988 37.962 13.3847 37.682 13.702C37.4113 14.0193 37.0847 14.2573 36.702 14.416C36.3193 14.5747 35.8947 14.654 35.428 14.654C34.8587 14.654 34.3687 14.528 33.958 14.276C33.5567 14.024 33.244 13.6973 33.02 13.296V17.3H31.48ZM35.078 13.338C35.3487 13.338 35.6007 13.2867 35.834 13.184C36.0673 13.072 36.268 12.9133 36.436 12.708C36.6133 12.5027 36.7487 12.246 36.842 11.938C36.9447 11.6207 36.996 11.2613 36.996 10.86V10.58C36.996 10.1973 36.9447 9.86133 36.842 9.572C36.7487 9.28267 36.6133 9.04 36.436 8.844C36.268 8.648 36.0673 8.49867 35.834 8.396C35.6007 8.29333 35.3487 8.242 35.078 8.242C34.7793 8.242 34.4993 8.29333 34.238 8.396C33.986 8.48933 33.7713 8.62467 33.594 8.802C33.4167 8.97 33.2767 9.18 33.174 9.432C33.0713 9.67467 33.02 9.94067 33.02 10.23V11.21C33.02 11.5273 33.0713 11.8213 33.174 12.092C33.2767 12.3533 33.4167 12.5773 33.594 12.764C33.7713 12.9413 33.986 13.0813 34.238 13.184C34.4993 13.2867 34.7793 13.338 35.078 13.338ZM43.3133 14.654C42.8186 14.654 42.3519 14.5793 41.9133 14.43C41.4746 14.2713 41.0873 14.038 40.7513 13.73C40.4246 13.4127 40.1633 13.016 39.9673 12.54C39.7713 12.0547 39.6733 11.4947 39.6733 10.86V10.58C39.6733 9.97333 39.7713 9.446 39.9673 8.998C40.1633 8.54067 40.4246 8.158 40.7513 7.85C41.0873 7.542 41.4746 7.31333 41.9133 7.164C42.3519 7.00533 42.8186 6.926 43.3133 6.926C43.8079 6.926 44.2746 7.00533 44.7133 7.164C45.1519 7.31333 45.5346 7.542 45.8613 7.85C46.1973 8.158 46.4633 8.54067 46.6593 8.998C46.8553 9.446 46.9533 9.97333 46.9533 10.58V10.86C46.9533 11.4947 46.8553 12.05 46.6593 12.526C46.4633 13.002 46.1973 13.3987 45.8613 13.716C45.5346 14.0333 45.1519 14.2713 44.7133 14.43C44.2746 14.5793 43.8079 14.654 43.3133 14.654ZM43.3133 13.31C43.5839 13.31 43.8453 13.2633 44.0973 13.17C44.3493 13.0673 44.5686 12.918 44.7553 12.722C44.9419 12.526 45.0913 12.274 45.2033 11.966C45.3153 11.658 45.3713 11.2893 45.3713 10.86V10.58C45.3713 10.188 45.3153 9.84733 45.2033 9.558C45.0913 9.26867 44.9419 9.03067 44.7553 8.844C44.5686 8.648 44.3493 8.50333 44.0973 8.41C43.8453 8.31667 43.5839 8.27 43.3133 8.27C43.0426 8.27 42.7813 8.31667 42.5293 8.41C42.2773 8.50333 42.0579 8.648 41.8713 8.844C41.6846 9.03067 41.5353 9.26867 41.4233 9.558C41.3113 9.84733 41.2553 10.188 41.2553 10.58V10.86C41.2553 11.2893 41.3113 11.658 41.4233 11.966C41.5353 12.274 41.6846 12.5307 41.8713 12.736C42.0579 12.932 42.2773 13.0767 42.5293 13.17C42.7813 13.2633 43.0426 13.31 43.3133 13.31ZM48.4878 14.5V7.08H51.9598C52.4265 7.08 52.8278 7.13133 53.1638 7.234C53.5091 7.32733 53.7891 7.46733 54.0038 7.654C54.2185 7.83133 54.3771 8.04133 54.4798 8.284C54.5918 8.52667 54.6478 8.79267 54.6478 9.082C54.6478 9.418 54.5451 9.73533 54.3398 10.034C54.1345 10.3327 53.8545 10.538 53.4998 10.65C53.9571 10.762 54.3071 10.9767 54.5498 11.294C54.8018 11.602 54.9278 11.966 54.9278 12.386C54.9278 13.03 54.7085 13.5433 54.2698 13.926C53.8405 14.3087 53.1638 14.5 52.2398 14.5H48.4878ZM50.0278 13.226H52.0578C52.5431 13.226 52.8838 13.1467 53.0798 12.988C53.2851 12.8293 53.3878 12.596 53.3878 12.288C53.3878 11.9707 53.2851 11.728 53.0798 11.56C52.8838 11.392 52.5431 11.308 52.0578 11.308H50.0278V13.226ZM50.0278 10.132H51.8338C52.3098 10.132 52.6411 10.0527 52.8278 9.894C53.0145 9.726 53.1078 9.502 53.1078 9.222C53.1078 8.95133 53.0145 8.74133 52.8278 8.592C52.6411 8.43333 52.3098 8.354 51.8338 8.354H50.0278V10.132ZM59.7202 14.654C59.2162 14.654 58.7402 14.5793 58.2922 14.43C57.8535 14.2807 57.4662 14.0473 57.1302 13.73C56.8035 13.4127 56.5422 13.016 56.3462 12.54C56.1502 12.064 56.0522 11.504 56.0522 10.86V10.58C56.0522 9.964 56.1455 9.432 56.3322 8.984C56.5189 8.52667 56.7709 8.144 57.0882 7.836C57.4149 7.528 57.7882 7.29933 58.2082 7.15C58.6375 7.00067 59.0949 6.926 59.5802 6.926C60.7189 6.926 61.5869 7.22933 62.1842 7.836C62.7909 8.43333 63.0942 9.30133 63.0942 10.44V11.224H57.6062C57.6155 11.6067 57.6809 11.9333 57.8022 12.204C57.9235 12.4653 58.0822 12.68 58.2782 12.848C58.4835 13.016 58.7075 13.142 58.9502 13.226C59.2022 13.3007 59.4589 13.338 59.7202 13.338C60.2335 13.338 60.6302 13.254 60.9102 13.086C61.1902 12.918 61.3862 12.6893 61.4982 12.4H62.9542C62.8795 12.7733 62.7489 13.1 62.5622 13.38C62.3755 13.66 62.1422 13.898 61.8622 14.094C61.5822 14.2807 61.2602 14.4207 60.8962 14.514C60.5322 14.6073 60.1402 14.654 59.7202 14.654ZM57.6202 10.076H61.6242C61.6149 9.73067 61.5589 9.44133 61.4562 9.208C61.3535 8.97467 61.2135 8.788 61.0362 8.648C60.8589 8.508 60.6489 8.40533 60.4062 8.34C60.1635 8.27467 59.9115 8.242 59.6502 8.242C59.3889 8.242 59.1369 8.27933 58.8942 8.354C58.6515 8.41933 58.4369 8.52667 58.2502 8.676C58.0635 8.82533 57.9095 9.01667 57.7882 9.25C57.6762 9.474 57.6202 9.74933 57.6202 10.076ZM64.6343 17.3V7.08H66.0623V8.354C66.2956 7.92467 66.627 7.57933 67.0563 7.318C67.4856 7.05667 67.9943 6.926 68.5823 6.926C69.553 6.926 70.3136 7.234 70.8643 7.85C71.4243 8.45667 71.7043 9.36667 71.7043 10.58V10.86C71.7043 11.4853 71.6296 12.036 71.4803 12.512C71.331 12.988 71.1163 13.3847 70.8363 13.702C70.5656 14.0193 70.239 14.2573 69.8563 14.416C69.4736 14.5747 69.049 14.654 68.5823 14.654C68.013 14.654 67.523 14.528 67.1123 14.276C66.711 14.024 66.3983 13.6973 66.1743 13.296V17.3H64.6343ZM68.2323 13.338C68.503 13.338 68.755 13.2867 68.9883 13.184C69.2216 13.072 69.4223 12.9133 69.5903 12.708C69.7676 12.5027 69.903 12.246 69.9963 11.938C70.099 11.6207 70.1503 11.2613 70.1503 10.86V10.58C70.1503 10.1973 70.099 9.86133 69.9963 9.572C69.903 9.28267 69.7676 9.04 69.5903 8.844C69.4223 8.648 69.2216 8.49867 68.9883 8.396C68.755 8.29333 68.503 8.242 68.2323 8.242C67.9336 8.242 67.6536 8.29333 67.3923 8.396C67.1403 8.48933 66.9256 8.62467 66.7483 8.802C66.571 8.97 66.431 9.18 66.3283 9.432C66.2256 9.67467 66.1743 9.94067 66.1743 10.23V11.21C66.1743 11.5273 66.2256 11.8213 66.3283 12.092C66.431 12.3533 66.571 12.5773 66.7483 12.764C66.9256 12.9413 67.1403 13.0813 67.3923 13.184C67.6536 13.2867 67.9336 13.338 68.2323 13.338ZM76.4956 14.654C75.9916 14.654 75.5156 14.5793 75.0676 14.43C74.6289 14.2807 74.2416 14.0473 73.9056 13.73C73.5789 13.4127 73.3176 13.016 73.1216 12.54C72.9256 12.064 72.8276 11.504 72.8276 10.86V10.58C72.8276 9.964 72.9209 9.432 73.1076 8.984C73.2942 8.52667 73.5462 8.144 73.8636 7.836C74.1902 7.528 74.5636 7.29933 74.9836 7.15C75.4129 7.00067 75.8702 6.926 76.3556 6.926C77.4942 6.926 78.3622 7.22933 78.9596 7.836C79.5662 8.43333 79.8696 9.30133 79.8696 10.44V11.224H74.3816C74.3909 11.6067 74.4562 11.9333 74.5776 12.204C74.6989 12.4653 74.8576 12.68 75.0536 12.848C75.2589 13.016 75.4829 13.142 75.7256 13.226C75.9776 13.3007 76.2342 13.338 76.4956 13.338C77.0089 13.338 77.4056 13.254 77.6856 13.086C77.9656 12.918 78.1616 12.6893 78.2736 12.4H79.7296C79.6549 12.7733 79.5242 13.1 79.3376 13.38C79.1509 13.66 78.9176 13.898 78.6376 14.094C78.3576 14.2807 78.0356 14.4207 77.6716 14.514C77.3076 14.6073 76.9156 14.654 76.4956 14.654ZM74.3956 10.076H78.3996C78.3902 9.73067 78.3342 9.44133 78.2316 9.208C78.1289 8.97467 77.9889 8.788 77.8116 8.648C77.6342 8.508 77.4242 8.40533 77.1816 8.34C76.9389 8.27467 76.6869 8.242 76.4256 8.242C76.1642 8.242 75.9122 8.27933 75.6696 8.354C75.4269 8.41933 75.2122 8.52667 75.0256 8.676C74.8389 8.82533 74.6849 9.01667 74.5636 9.25C74.4516 9.474 74.3956 9.74933 74.3956 10.076ZM81.4097 14.5V7.08H82.9497V10.062H86.4497V7.08H87.9897V14.5H86.4497V11.378H82.9497V14.5H81.4097ZM93.1746 14.654C92.6799 14.654 92.2133 14.5793 91.7746 14.43C91.3359 14.2713 90.9486 14.038 90.6126 13.73C90.2859 13.4127 90.0246 13.016 89.8286 12.54C89.6326 12.0547 89.5346 11.4947 89.5346 10.86V10.58C89.5346 9.97333 89.6326 9.446 89.8286 8.998C90.0246 8.54067 90.2859 8.158 90.6126 7.85C90.9486 7.542 91.3359 7.31333 91.7746 7.164C92.2133 7.00533 92.6799 6.926 93.1746 6.926C93.6693 6.926 94.1359 7.00533 94.5746 7.164C95.0133 7.31333 95.3959 7.542 95.7226 7.85C96.0586 8.158 96.3246 8.54067 96.5206 8.998C96.7166 9.446 96.8146 9.97333 96.8146 10.58V10.86C96.8146 11.4947 96.7166 12.05 96.5206 12.526C96.3246 13.002 96.0586 13.3987 95.7226 13.716C95.3959 14.0333 95.0133 14.2713 94.5746 14.43C94.1359 14.5793 93.6693 14.654 93.1746 14.654ZM93.1746 13.31C93.4453 13.31 93.7066 13.2633 93.9586 13.17C94.2106 13.0673 94.4299 12.918 94.6166 12.722C94.8033 12.526 94.9526 12.274 95.0646 11.966C95.1766 11.658 95.2326 11.2893 95.2326 10.86V10.58C95.2326 10.188 95.1766 9.84733 95.0646 9.558C94.9526 9.26867 94.8033 9.03067 94.6166 8.844C94.4299 8.648 94.2106 8.50333 93.9586 8.41C93.7066 8.31667 93.4453 8.27 93.1746 8.27C92.9039 8.27 92.6426 8.31667 92.3906 8.41C92.1386 8.50333 91.9193 8.648 91.7326 8.844C91.5459 9.03067 91.3966 9.26867 91.2846 9.558C91.1726 9.84733 91.1166 10.188 91.1166 10.58V10.86C91.1166 11.2893 91.1726 11.658 91.2846 11.966C91.3966 12.274 91.5459 12.5307 91.7326 12.736C91.9193 12.932 92.1386 13.0767 92.3906 13.17C92.6426 13.2633 92.9039 13.31 93.1746 13.31Z" fill="#34353D"/>
</svg>
